<mxfile host="app.diagrams.net" modified="2022-11-09T22:23:45.776Z" agent="5.0 (Windows NT 10.0; Win64; x64) AppleWebKit/537.36 (KHTML, like Gecko) Chrome/107.0.0.0 Safari/537.36" etag="Qdb7sGDz3-tT7oy1U_8r" version="18.1.2" type="github">
  <diagram id="FBV8tTm6_C9Re-YX3GdS" name="Page-1">
    <mxGraphModel dx="1422" dy="794" grid="1" gridSize="10" guides="1" tooltips="1" connect="1" arrows="1" fold="1" page="1" pageScale="1" pageWidth="850" pageHeight="1100" math="0" shadow="0">
      <root>
        <mxCell id="0" />
        <mxCell id="1" parent="0" />
        <mxCell id="KwOHCEnHmsoIN8MlQjrJ-8" value="" style="edgeStyle=orthogonalEdgeStyle;rounded=0;orthogonalLoop=1;jettySize=auto;html=1;entryX=0.5;entryY=0;entryDx=0;entryDy=0;" parent="1" source="KwOHCEnHmsoIN8MlQjrJ-1" target="KwOHCEnHmsoIN8MlQjrJ-5" edge="1">
          <mxGeometry relative="1" as="geometry">
            <Array as="points">
              <mxPoint x="390" y="276" />
              <mxPoint x="630" y="276" />
            </Array>
          </mxGeometry>
        </mxCell>
        <mxCell id="KwOHCEnHmsoIN8MlQjrJ-10" value="" style="edgeStyle=orthogonalEdgeStyle;rounded=0;orthogonalLoop=1;jettySize=auto;html=1;entryX=0.5;entryY=0;entryDx=0;entryDy=0;" parent="1" source="KwOHCEnHmsoIN8MlQjrJ-1" target="KwOHCEnHmsoIN8MlQjrJ-3" edge="1">
          <mxGeometry relative="1" as="geometry" />
        </mxCell>
        <mxCell id="KwOHCEnHmsoIN8MlQjrJ-11" value="" style="edgeStyle=orthogonalEdgeStyle;rounded=0;orthogonalLoop=1;jettySize=auto;html=1;entryX=0.5;entryY=0;entryDx=0;entryDy=0;" parent="1" source="KwOHCEnHmsoIN8MlQjrJ-1" target="KwOHCEnHmsoIN8MlQjrJ-2" edge="1">
          <mxGeometry relative="1" as="geometry">
            <Array as="points">
              <mxPoint x="390" y="276" />
              <mxPoint x="160" y="276" />
            </Array>
          </mxGeometry>
        </mxCell>
        <mxCell id="KwOHCEnHmsoIN8MlQjrJ-13" style="edgeStyle=orthogonalEdgeStyle;rounded=0;orthogonalLoop=1;jettySize=auto;html=1;entryX=0.5;entryY=0;entryDx=0;entryDy=0;" parent="1" source="KwOHCEnHmsoIN8MlQjrJ-1" target="KwOHCEnHmsoIN8MlQjrJ-4" edge="1">
          <mxGeometry relative="1" as="geometry" />
        </mxCell>
        <mxCell id="KwOHCEnHmsoIN8MlQjrJ-1" value="Volte Service" style="rounded=1;whiteSpace=wrap;html=1;fillColor=#d5e8d4;strokeColor=#82b366;" parent="1" vertex="1">
          <mxGeometry x="330" y="186" width="120" height="60" as="geometry" />
        </mxCell>
        <mxCell id="KwOHCEnHmsoIN8MlQjrJ-40" value="" style="edgeStyle=orthogonalEdgeStyle;rounded=0;orthogonalLoop=1;jettySize=auto;html=1;entryX=0;entryY=0.5;entryDx=0;entryDy=0;" parent="1" source="KwOHCEnHmsoIN8MlQjrJ-2" target="KwOHCEnHmsoIN8MlQjrJ-39" edge="1">
          <mxGeometry relative="1" as="geometry" />
        </mxCell>
        <mxCell id="KwOHCEnHmsoIN8MlQjrJ-2" value="LTE Radio Service" style="rounded=1;whiteSpace=wrap;html=1;fillColor=#fff2cc;strokeColor=#d6b656;" parent="1" vertex="1">
          <mxGeometry x="100" y="306" width="120" height="60" as="geometry" />
        </mxCell>
        <mxCell id="KwOHCEnHmsoIN8MlQjrJ-20" value="" style="edgeStyle=orthogonalEdgeStyle;rounded=0;orthogonalLoop=1;jettySize=auto;html=1;entryX=0;entryY=0.5;entryDx=0;entryDy=0;" parent="1" source="KwOHCEnHmsoIN8MlQjrJ-3" target="KwOHCEnHmsoIN8MlQjrJ-19" edge="1">
          <mxGeometry relative="1" as="geometry" />
        </mxCell>
        <mxCell id="KwOHCEnHmsoIN8MlQjrJ-3" value="EPC Service" style="rounded=1;whiteSpace=wrap;html=1;fillColor=#fff2cc;strokeColor=#d6b656;" parent="1" vertex="1">
          <mxGeometry x="250" y="306" width="120" height="60" as="geometry" />
        </mxCell>
        <mxCell id="KwOHCEnHmsoIN8MlQjrJ-24" value="" style="edgeStyle=orthogonalEdgeStyle;rounded=0;orthogonalLoop=1;jettySize=auto;html=1;entryX=0;entryY=0.5;entryDx=0;entryDy=0;" parent="1" source="KwOHCEnHmsoIN8MlQjrJ-4" target="KwOHCEnHmsoIN8MlQjrJ-23" edge="1">
          <mxGeometry relative="1" as="geometry" />
        </mxCell>
        <mxCell id="KwOHCEnHmsoIN8MlQjrJ-4" value="CS Core Service" style="rounded=1;whiteSpace=wrap;html=1;fillColor=#fff2cc;strokeColor=#d6b656;" parent="1" vertex="1">
          <mxGeometry x="410" y="306" width="120" height="60" as="geometry" />
        </mxCell>
        <mxCell id="KwOHCEnHmsoIN8MlQjrJ-29" value="" style="edgeStyle=orthogonalEdgeStyle;rounded=0;orthogonalLoop=1;jettySize=auto;html=1;entryX=0;entryY=0.5;entryDx=0;entryDy=0;exitX=0.16;exitY=1.003;exitDx=0;exitDy=0;exitPerimeter=0;" parent="1" target="KwOHCEnHmsoIN8MlQjrJ-25" edge="1">
          <mxGeometry relative="1" as="geometry">
            <mxPoint x="628.2" y="366.18000000000006" as="sourcePoint" />
            <Array as="points">
              <mxPoint x="628" y="418" />
            </Array>
          </mxGeometry>
        </mxCell>
        <mxCell id="KwOHCEnHmsoIN8MlQjrJ-5" value="IMS Service" style="rounded=1;whiteSpace=wrap;html=1;fillColor=#fff2cc;strokeColor=#d6b656;" parent="1" vertex="1">
          <mxGeometry x="570" y="306" width="120" height="60" as="geometry" />
        </mxCell>
        <mxCell id="KwOHCEnHmsoIN8MlQjrJ-16" value="LTE Site" style="rounded=1;whiteSpace=wrap;html=1;fillColor=#e1d5e7;strokeColor=#9673a6;" parent="1" vertex="1">
          <mxGeometry x="240" y="456" width="60" height="20" as="geometry" />
        </mxCell>
        <mxCell id="KwOHCEnHmsoIN8MlQjrJ-19" value="EPC CMM Service" style="rounded=1;whiteSpace=wrap;html=1;fillColor=#dae8fc;strokeColor=#6c8ebf;" parent="1" vertex="1">
          <mxGeometry x="330" y="395.5" width="90" height="34.5" as="geometry" />
        </mxCell>
        <mxCell id="KwOHCEnHmsoIN8MlQjrJ-23" value="MSS Service" style="rounded=1;whiteSpace=wrap;html=1;fillColor=#dae8fc;strokeColor=#6c8ebf;" parent="1" vertex="1">
          <mxGeometry x="500" y="398.5" width="100" height="41.5" as="geometry" />
        </mxCell>
        <mxCell id="KwOHCEnHmsoIN8MlQjrJ-25" value="TAS Service" style="rounded=1;whiteSpace=wrap;html=1;fillColor=#dae8fc;strokeColor=#6c8ebf;" parent="1" vertex="1">
          <mxGeometry x="649" y="398" width="80" height="40" as="geometry" />
        </mxCell>
        <mxCell id="KwOHCEnHmsoIN8MlQjrJ-26" value="CSCF Service" style="rounded=1;whiteSpace=wrap;html=1;fillColor=#dae8fc;strokeColor=#6c8ebf;" parent="1" vertex="1">
          <mxGeometry x="649" y="456" width="80" height="41" as="geometry" />
        </mxCell>
        <mxCell id="KwOHCEnHmsoIN8MlQjrJ-27" value="OneDNS Service" style="rounded=1;whiteSpace=wrap;html=1;fillColor=#dae8fc;strokeColor=#6c8ebf;" parent="1" vertex="1">
          <mxGeometry x="649" y="513" width="80" height="40" as="geometry" />
        </mxCell>
        <mxCell id="KwOHCEnHmsoIN8MlQjrJ-28" value="BGW Service" style="rounded=1;whiteSpace=wrap;html=1;fillColor=#dae8fc;strokeColor=#6c8ebf;" parent="1" vertex="1">
          <mxGeometry x="649" y="572" width="80" height="40" as="geometry" />
        </mxCell>
        <mxCell id="KwOHCEnHmsoIN8MlQjrJ-30" value="" style="edgeStyle=orthogonalEdgeStyle;rounded=0;orthogonalLoop=1;jettySize=auto;html=1;entryX=0;entryY=0.5;entryDx=0;entryDy=0;exitX=0.159;exitY=1;exitDx=0;exitDy=0;exitPerimeter=0;" parent="1" edge="1">
          <mxGeometry relative="1" as="geometry">
            <mxPoint x="628.0799999999999" y="366" as="sourcePoint" />
            <mxPoint x="648" y="476.5" as="targetPoint" />
            <Array as="points">
              <mxPoint x="628" y="477" />
            </Array>
          </mxGeometry>
        </mxCell>
        <mxCell id="KwOHCEnHmsoIN8MlQjrJ-33" value="" style="edgeStyle=orthogonalEdgeStyle;rounded=0;orthogonalLoop=1;jettySize=auto;html=1;entryX=0;entryY=0.5;entryDx=0;entryDy=0;exitX=0.158;exitY=1;exitDx=0;exitDy=0;exitPerimeter=0;" parent="1" edge="1">
          <mxGeometry relative="1" as="geometry">
            <mxPoint x="627.9599999999998" y="366" as="sourcePoint" />
            <mxPoint x="648" y="531.75" as="targetPoint" />
            <Array as="points">
              <mxPoint x="628" y="366" />
              <mxPoint x="628" y="532" />
            </Array>
          </mxGeometry>
        </mxCell>
        <mxCell id="KwOHCEnHmsoIN8MlQjrJ-34" value="" style="edgeStyle=orthogonalEdgeStyle;rounded=0;orthogonalLoop=1;jettySize=auto;html=1;entryX=0;entryY=0.5;entryDx=0;entryDy=0;" parent="1" edge="1">
          <mxGeometry relative="1" as="geometry">
            <mxPoint x="628" y="366" as="sourcePoint" />
            <mxPoint x="648" y="591.75" as="targetPoint" />
            <Array as="points">
              <mxPoint x="628" y="366" />
              <mxPoint x="628" y="592" />
            </Array>
          </mxGeometry>
        </mxCell>
        <mxCell id="KwOHCEnHmsoIN8MlQjrJ-38" value="" style="edgeStyle=orthogonalEdgeStyle;rounded=0;orthogonalLoop=1;jettySize=auto;html=1;" parent="1" source="KwOHCEnHmsoIN8MlQjrJ-37" target="KwOHCEnHmsoIN8MlQjrJ-1" edge="1">
          <mxGeometry relative="1" as="geometry" />
        </mxCell>
        <mxCell id="KwOHCEnHmsoIN8MlQjrJ-37" value="SOC Region" style="rounded=1;whiteSpace=wrap;html=1;fillColor=#f5f5f5;strokeColor=#666666;fontColor=#333333;" parent="1" vertex="1">
          <mxGeometry x="330" y="91" width="120" height="60" as="geometry" />
        </mxCell>
        <mxCell id="KwOHCEnHmsoIN8MlQjrJ-41" value="" style="edgeStyle=orthogonalEdgeStyle;rounded=0;orthogonalLoop=1;jettySize=auto;html=1;entryX=0;entryY=0.25;entryDx=0;entryDy=0;" parent="1" source="KwOHCEnHmsoIN8MlQjrJ-39" target="KwOHCEnHmsoIN8MlQjrJ-16" edge="1">
          <mxGeometry relative="1" as="geometry" />
        </mxCell>
        <mxCell id="KwOHCEnHmsoIN8MlQjrJ-39" value="LTE Area" style="rounded=1;whiteSpace=wrap;html=1;fillColor=#dae8fc;strokeColor=#6c8ebf;" parent="1" vertex="1">
          <mxGeometry x="180" y="395.5" width="80" height="40" as="geometry" />
        </mxCell>
      </root>
    </mxGraphModel>
  </diagram>
</mxfile>
